<svg width="89" height="89" viewBox="0 0 89 89" fill="none" xmlns="http://www.w3.org/2000/svg">
<path d="M37.2479 15.07C34.2709 10.6695 31.2224 6.95801 28.4729 4.39051C27.1086 3.05257 25.5534 1.92445 23.8579 1.04301C22.4474 0.367007 20.2179 -0.289493 18.1249 0.913007C15.7394 2.29751 15.3494 5.00801 15.3299 6.73701C15.3104 8.71301 15.7459 11.053 16.4544 13.523C17.7284 17.9885 20.0684 23.455 23.1819 29.136L1.88794 50.43C0.0874413 52.2305 0.139441 54.694 0.470941 56.397C0.828441 58.2365 1.68644 60.2515 2.81094 62.2665C5.07294 66.342 8.79094 71.113 13.3799 75.7085C17.9754 80.304 22.7464 84.0155 26.8219 86.2775C28.8369 87.402 30.8519 88.26 32.6914 88.6175C34.3944 88.9425 36.8514 89.001 38.6584 87.2005L75.1559 50.703C75.9229 52.3735 75.7539 54.031 75.4809 56.8065C75.2859 58.7045 75.0389 61.129 75.0064 64.4505V65.25H75.0259C75.1622 66.8741 75.9036 68.3878 77.1033 69.4911C78.303 70.5944 79.8733 71.2067 81.5032 71.2067C83.133 71.2067 84.7034 70.5944 85.9031 69.4911C87.1028 68.3878 87.8442 66.8741 87.9804 65.25H87.9999V64.8795C88.006 64.6257 87.9973 64.3718 87.9739 64.119C87.6164 55.994 83.4239 46.322 75.8839 41.408C75.4797 40.4429 75.0218 39.5011 74.5124 38.587C72.2439 34.518 68.5324 29.747 63.9369 25.1515C59.3414 20.556 54.5704 16.838 50.4949 14.576C48.4799 13.458 46.4649 12.6 44.6254 12.236C42.9224 11.911 40.4654 11.859 38.6584 13.6595L37.2479 15.07ZM24.0399 9.13551C26.5164 11.4495 29.5259 15.1285 32.5614 19.7435L27.9854 24.326C25.5024 19.6005 23.6954 15.213 22.7009 11.729C22.2652 10.3046 21.9798 8.8384 21.8494 7.35451C22.4409 7.75101 23.1754 8.32951 24.0399 9.13551ZM26.6009 34.908C30.1109 40.446 33.7964 45.0935 37.0464 48.1225C37.3589 48.4136 37.7255 48.6403 38.1256 48.7896C38.5256 48.939 38.9511 49.0081 39.3778 48.993C39.8046 48.9779 40.2242 48.8789 40.6126 48.7017C41.0011 48.5244 41.3509 48.2724 41.6419 47.96C41.933 47.6476 42.1597 47.2809 42.3091 46.8809C42.4584 46.4809 42.5275 46.0553 42.5124 45.6286C42.4974 45.2019 42.3984 44.7823 42.2211 44.3938C42.0439 44.0053 41.7919 43.6556 41.4794 43.3645C38.5349 40.6215 34.8689 35.9805 31.3134 30.189L38.3854 23.117C38.7364 23.897 39.1329 24.6965 39.5749 25.4895C41.8434 29.565 45.5549 34.336 50.1504 38.9315C54.7394 43.527 59.5104 47.2385 63.5924 49.5005C64.3854 49.9425 65.1784 50.3455 65.9649 50.69L34.3684 82.293C34.2199 82.2802 34.0723 82.2585 33.9264 82.228C33.0359 82.0525 31.7034 81.552 29.9744 80.59C26.5684 78.692 22.2654 75.39 17.9754 71.1C13.6854 66.81 10.3834 62.52 8.48544 59.101C7.52994 57.3785 7.02294 56.046 6.85394 55.1555C6.82345 55.0096 6.80174 54.862 6.78894 54.7135L26.6009 34.908ZM45.2559 22.3305C44.5831 21.1854 44.0569 19.9603 43.6894 18.684C44.5669 18.8985 45.7954 19.399 47.3424 20.2505C50.7484 22.1485 55.0514 25.4505 59.3414 29.7405C62.2664 32.6655 64.7364 35.597 66.6084 38.2555C64.2821 38.0961 61.9451 38.2956 59.6794 38.847C57.9649 37.4194 56.3166 35.9141 54.7394 34.336C50.4494 30.046 47.1539 25.743 45.2624 22.3305H45.2559Z" fill="#8D8D8D"/>
</svg>
