<svg width="840" height="549" viewBox="0 0 840 549" fill="none" xmlns="http://www.w3.org/2000/svg">
<path d="M469.66 142.315L334.557 401.157L178.082 154.661L469.66 142.315Z" fill="url(#paint0_linear_6_10)"/>
<path d="M263.204 87.9561L409.067 340.829H117.34L263.204 87.9561Z" fill="url(#paint1_linear_6_10)"/>
<path d="M128.317 439.732L180.991 152.51L403.242 341.767L128.317 439.732Z" fill="url(#paint2_linear_6_10)"/>
<path d="M458.472 309V239.182H475.347V267.205H502.858V239.182H519.699V309H502.858V280.943H475.347V309H458.472ZM593.659 264.477H576.614C576.386 262.727 575.92 261.148 575.216 259.739C574.511 258.33 573.58 257.125 572.42 256.125C571.261 255.125 569.886 254.364 568.295 253.841C566.727 253.295 564.989 253.023 563.08 253.023C559.693 253.023 556.773 253.852 554.318 255.511C551.886 257.17 550.011 259.568 548.693 262.705C547.398 265.841 546.75 269.636 546.75 274.091C546.75 278.727 547.409 282.614 548.727 285.75C550.068 288.864 551.943 291.216 554.352 292.807C556.784 294.375 559.659 295.159 562.977 295.159C564.841 295.159 566.534 294.92 568.057 294.443C569.602 293.966 570.955 293.273 572.114 292.364C573.295 291.432 574.261 290.307 575.011 288.989C575.784 287.648 576.318 286.136 576.614 284.455L593.659 284.557C593.364 287.648 592.466 290.693 590.966 293.693C589.489 296.693 587.455 299.432 584.864 301.909C582.273 304.364 579.114 306.318 575.386 307.773C571.682 309.227 567.432 309.955 562.636 309.955C556.318 309.955 550.659 308.568 545.659 305.795C540.682 303 536.75 298.932 533.864 293.591C530.977 288.25 529.534 281.75 529.534 274.091C529.534 266.409 531 259.898 533.932 254.557C536.864 249.216 540.83 245.159 545.83 242.386C550.83 239.614 556.432 238.227 562.636 238.227C566.864 238.227 570.773 238.818 574.364 240C577.955 241.159 581.114 242.864 583.841 245.114C586.568 247.341 588.784 250.08 590.489 253.33C592.193 256.58 593.25 260.295 593.659 264.477ZM627.759 309.989C622.259 309.989 617.531 308.864 613.577 306.614C609.645 304.341 606.611 301.182 604.474 297.136C602.361 293.068 601.304 288.352 601.304 282.989C601.304 277.602 602.361 272.886 604.474 268.841C606.611 264.773 609.645 261.614 613.577 259.364C617.531 257.091 622.259 255.955 627.759 255.955C633.259 255.955 637.974 257.091 641.906 259.364C645.861 261.614 648.895 264.773 651.009 268.841C653.145 272.886 654.213 277.602 654.213 282.989C654.213 288.352 653.145 293.068 651.009 297.136C648.895 301.182 645.861 304.341 641.906 306.614C637.974 308.864 633.259 309.989 627.759 309.989ZM627.861 297.409C629.861 297.409 631.554 296.795 632.94 295.568C634.327 294.341 635.384 292.636 636.111 290.455C636.861 288.273 637.236 285.75 637.236 282.886C637.236 279.977 636.861 277.432 636.111 275.25C635.384 273.068 634.327 271.364 632.94 270.136C631.554 268.909 629.861 268.295 627.861 268.295C625.793 268.295 624.043 268.909 622.611 270.136C621.202 271.364 620.122 273.068 619.372 275.25C618.645 277.432 618.281 279.977 618.281 282.886C618.281 285.75 618.645 288.273 619.372 290.455C620.122 292.636 621.202 294.341 622.611 295.568C624.043 296.795 625.793 297.409 627.861 297.409ZM679.423 239.182V309H662.753V239.182H679.423ZM714.477 309.989C708.977 309.989 704.25 308.864 700.295 306.614C696.364 304.341 693.33 301.182 691.193 297.136C689.08 293.068 688.023 288.352 688.023 282.989C688.023 277.602 689.08 272.886 691.193 268.841C693.33 264.773 696.364 261.614 700.295 259.364C704.25 257.091 708.977 255.955 714.477 255.955C719.977 255.955 724.693 257.091 728.625 259.364C732.58 261.614 735.614 264.773 737.727 268.841C739.864 272.886 740.932 277.602 740.932 282.989C740.932 288.352 739.864 293.068 737.727 297.136C735.614 301.182 732.58 304.341 728.625 306.614C724.693 308.864 719.977 309.989 714.477 309.989ZM714.58 297.409C716.58 297.409 718.273 296.795 719.659 295.568C721.045 294.341 722.102 292.636 722.83 290.455C723.58 288.273 723.955 285.75 723.955 282.886C723.955 279.977 723.58 277.432 722.83 275.25C722.102 273.068 721.045 271.364 719.659 270.136C718.273 268.909 716.58 268.295 714.58 268.295C712.511 268.295 710.761 268.909 709.33 270.136C707.92 271.364 706.841 273.068 706.091 275.25C705.364 277.432 705 279.977 705 282.886C705 285.75 705.364 288.273 706.091 290.455C706.841 292.636 707.92 294.341 709.33 295.568C710.761 296.795 712.511 297.409 714.58 297.409ZM749.472 309V256.636H765.665V266.182H766.21C767.165 262.727 768.722 260.159 770.881 258.477C773.04 256.773 775.551 255.92 778.415 255.92C779.188 255.92 779.983 255.977 780.801 256.091C781.619 256.182 782.381 256.33 783.085 256.534V271.023C782.29 270.75 781.244 270.534 779.949 270.375C778.676 270.216 777.54 270.136 776.54 270.136C774.563 270.136 772.778 270.58 771.188 271.466C769.619 272.33 768.381 273.545 767.472 275.114C766.585 276.659 766.142 278.477 766.142 280.568V309H749.472ZM835.594 272.625L820.287 273.034C820.128 271.943 819.696 270.977 818.991 270.136C818.287 269.273 817.366 268.602 816.23 268.125C815.116 267.625 813.821 267.375 812.344 267.375C810.412 267.375 808.764 267.761 807.401 268.534C806.06 269.307 805.401 270.352 805.423 271.67C805.401 272.693 805.81 273.58 806.651 274.33C807.514 275.08 809.048 275.682 811.253 276.136L821.344 278.045C826.571 279.045 830.457 280.705 833.003 283.023C835.571 285.341 836.866 288.409 836.889 292.227C836.866 295.818 835.798 298.943 833.685 301.602C831.594 304.261 828.73 306.33 825.094 307.807C821.457 309.261 817.298 309.989 812.616 309.989C805.139 309.989 799.241 308.455 794.923 305.386C790.628 302.295 788.173 298.159 787.56 292.977L804.026 292.568C804.389 294.477 805.332 295.932 806.855 296.932C808.378 297.932 810.321 298.432 812.685 298.432C814.821 298.432 816.56 298.034 817.901 297.239C819.241 296.443 819.923 295.386 819.946 294.068C819.923 292.886 819.401 291.943 818.378 291.239C817.355 290.511 815.753 289.943 813.571 289.534L804.435 287.795C799.185 286.841 795.276 285.08 792.707 282.511C790.139 279.92 788.866 276.625 788.889 272.625C788.866 269.125 789.798 266.136 791.685 263.659C793.571 261.159 796.253 259.25 799.73 257.932C803.207 256.614 807.31 255.955 812.037 255.955C819.128 255.955 824.719 257.443 828.81 260.42C832.901 263.375 835.162 267.443 835.594 272.625Z" fill="black"/>
<defs>
<linearGradient id="paint0_linear_6_10" x1="469.66" y1="142.315" x2="185.105" y2="322.948" gradientUnits="userSpaceOnUse">
<stop stop-color="#9BD9A7"/>
<stop offset="1" stop-color="#9BD9A7" stop-opacity="0"/>
</linearGradient>
<linearGradient id="paint1_linear_6_10" x1="263.204" y1="87.9561" x2="263.204" y2="425.12" gradientUnits="userSpaceOnUse">
<stop stop-color="#5AADE5"/>
<stop offset="1" stop-color="#9BD9A7"/>
</linearGradient>
<linearGradient id="paint2_linear_6_10" x1="128.317" y1="439.732" x2="346.873" y2="183.074" gradientUnits="userSpaceOnUse">
<stop stop-color="#5AADE5"/>
<stop offset="1" stop-color="#5AADE5" stop-opacity="0"/>
</linearGradient>
</defs>
</svg>
